<svg id="レイヤー_2" xmlns="http://www.w3.org/2000/svg" viewBox="0 0 317.5 64.9"><style>.st0{fill:#b3dff8}.st1{fill:#7ac7f3}.st2{fill:#01b1eb}.st3{fill:#008cd4}.st4{fill:#1765a9}.st5{fill:#474e53}</style><path class="st0" d="M0 0h4.7v64.9H0z"/><path class="st1" d="M15 0h5.9v64.9H15z"/><path class="st2" d="M28.6 0h7.3v64.9h-7.3z"/><path class="st3" d="M41.5 0h8.4v64.9h-8.4z"/><path class="st4" d="M54.5 0h10.4v64.9H54.5z"/><path class="st5" d="M90.6 45.5c2.1 1.2 5.7 2 8.7 2 4.8 0 7.2-2.5 7.2-5.9 0-3.8-2.3-5.7-6.8-8.6-7.2-4.4-9.9-9.9-9.9-14.7C89.8 10 95.4 3 106.4 3c3.4 0 6.7.9 8.3 1.9l-1.6 8.8c-1.5-.9-3.7-1.8-6.7-1.8-4.4 0-6.5 2.7-6.5 5.5 0 3.1 1.6 4.8 7.3 8.2 6.9 4.2 9.5 9.5 9.5 15 0 9.6-7.1 15.9-17.4 15.9-4.2 0-8.3-1.1-10.1-2.1l1.4-8.9zM153.2 64.6c-4.5-1.9-9.6-4.5-13.5-6.9-1.2-.6-2-1.1-2.5-1.1-10.2 0-16.4-9.9-16.4-27.1 0-14.1 5.7-26.7 17.4-26.7 12.7 0 16.2 14 16.2 26 0 13-3 21.1-7.9 23.8v.4c3.4 1.5 7 2.7 10.3 3.9l-3.6 7.7zm-9.5-35.4c0-9.8-1.5-17.5-6-17.5-4.2 0-6.3 7.9-6.3 17.8-.1 10.7 1.8 18.2 6.3 18.2 4.3 0 6-7.5 6-18.5zM170.8 3.4v34.1c0 7.7 2.3 10.1 5 10.1 3 0 5.1-2.1 5.1-10.1V3.4h10.2v32.4c0 13.5-5.1 20.8-15.2 20.8-11 0-15.3-7.6-15.3-20.7V3.4h10.2zM220.9 32.9h-12v14.2h13.6V56h-23.8V3.4h22.8v8.9h-12.6v12.1h12v8.5zM251.7 32.9h-12v14.2h13.6V56h-23.8V3.4h22.8v8.9h-12.6v12.1h12v8.5zM259.8 50l16.6-37.4v-.2h-15v-9H288V11l-16 35.9v.2h15.8V56h-28.1v-6zM317.5 32.9h-12v14.2h13.6V56h-23.8V3.4h22.8v8.9h-12.6v12.1h12v8.5z"/></svg>