<svg xmlns="http://www.w3.org/2000/svg" xmlns:xlink="http://www.w3.org/1999/xlink" viewBox="0 0 201.706 45.103"><defs><clipPath id="b" transform="translate(3.28 2.292)"><path fill="none" d="M0 0h198.425v40.542H0z"/></clipPath><clipPath id="c" transform="translate(3.28 2.292)"><path d="M21.168 0l-2.084 1.203-4.544 2.624-4.349 2.511L8.437 7.35 6.305 8.581a20.834 20.834 0 0 0-1.915 1.18 10.793 10.793 0 0 0-3.271 13.478 10.674 10.674 0 0 0 5.553 5.135 11.096 11.096 0 0 0 7.449.28 12.832 12.832 0 0 0 2.56-1.175l2.197-1.269.512-.294a3.97 3.97 0 0 1-1.344-1.388 12.422 12.422 0 0 1-.597-1.509 4.112 4.112 0 0 0-.647-1.09 2.626 2.626 0 0 0-1.596-.91 3.629 3.629 0 0 0-1.553.133 7.938 7.938 0 0 0-1.219.55 4.104 4.104 0 0 1-1.301.391 3.956 3.956 0 0 1-4.121-5.453 4.374 4.374 0 0 1 1.918-2.07c.8-.467 1.605-.927 2.409-1.39q.742-.43 1.485-.857 1.576-.912 3.156-1.823l2.573-1.486a8.198 8.198 0 0 0 1.035-.679 6.499 6.499 0 0 0 2.125-7.119A6.633 6.633 0 0 0 21.168 0z" fill="none"/></clipPath><linearGradient id="a" y1="40.556" x2="1" y2="40.556" gradientTransform="matrix(30.556 0 0 -30.556 -4.841 1253.927)" gradientUnits="userSpaceOnUse"><stop offset="0" stop-color="#009fe8"/><stop offset="1" stop-color="#0a2f8c"/></linearGradient><clipPath id="d" transform="translate(3.28 2.292)"><path d="M11.249 40.536c-.005.006.004.01 0 0m7.368-28.717a13.55 13.55 0 0 0-3.19 1.422l-1.421.82-.654.377a2.406 2.406 0 0 0-.385.222.348.348 0 0 1-.05.03 3.93 3.93 0 0 1 1.22 1.171 4.031 4.031 0 0 1 .4.768c.106.272.159.555.244.834a3.746 3.746 0 0 0 .826 1.448 2.461 2.461 0 0 0 1.715.794 3.54 3.54 0 0 0 1.261-.203c.498-.166.931-.443 1.41-.638a3.97 3.97 0 0 1 4.447 6.332 5.892 5.892 0 0 1-1.53 1.108l-1.195.69-1.729.998-2.909 1.68-2.925 1.688c-.174.101-.348.2-.522.302a6.495 6.495 0 0 0-3.157 6.78 6.55 6.55 0 0 0 .673 1.927.553.553 0 0 0 .076.137.133.133 0 0 1 .027.03c.002-.003.009-.007.026-.01l.005-.003a1.61 1.61 0 0 0 .374-.215l2.141-1.237 3.202-1.847 3.346-1.933 2.538-1.465.909-.525q1.417-.817 2.833-1.636a11.611 11.611 0 0 0 3.306-2.737 10.767 10.767 0 0 0 .847-12.346 10.596 10.596 0 0 0-3.268-3.39 10.9 10.9 0 0 0-4.273-1.633 11.088 11.088 0 0 0-4.618.26" fill="none"/></clipPath><linearGradient id="e" y1="40.525" y2="40.525" gradientTransform="matrix(30.56324 0 0 -30.56324 -3.64 1264.552)" xlink:href="#a"/></defs><g clip-path="url(#b)" fill="#0a2f8c"><path d="M56.192 20.02c-2.897-.789-4.767-1.818-4.674-3.588.068-1.305 1.459-2.294 3.566-2.294a11.898 11.898 0 0 1 7.259 2.64l.345-6.497a13.741 13.741 0 0 0-7.58-2.002c-5.48 0-9.766 3.124-10.091 8.571-.2 3.375 1.9 6.597 7.482 8.146 2.757.766 4.438 1.825 4.349 3.503-.096 1.863-2.211 2.573-4.32 2.573a12.558 12.558 0 0 1-7.54-2.589l-.346 6.448a14.803 14.803 0 0 0 7.626 1.956c5.902 0 10.838-2.612 11.173-8.62.2-3.65-1.764-6.755-7.25-8.247M76.335 32.144a26.46 26.46 0 0 1-2.107.065c-2.425 0-2.807-1.007-2.706-2.957l.56-10.653h-5.645l-.59 11.17c-.295 5.566 3.05 7.119 8.37 7.119 2.704 0 4.996-.11 7.532-.29l.949-18H77.05zM125.145 18.844l-.928 17.646h5.733l.676-12.875a17.835 17.835 0 0 1 6.518.282l.275-5.216a30.865 30.865 0 0 0-12.274.163M146.494 25.27c-1.325-.26-2.26-.68-2.181-1.51.066-.699.924-1.146 2.479-1.146a9.223 9.223 0 0 1 5.184 1.57l.249-4.633a10.312 10.312 0 0 0-5.435-1.353c-4.164 0-7.501 1.87-7.755 6.045-.181 2.957 1.609 4.74 6.026 5.481 1.692.283 2.579.72 2.538 1.556-.045.911-1.33 1.191-2.598 1.191a11.832 11.832 0 0 1-6.008-1.803l-.265 4.747a12.664 12.664 0 0 0 6.195 1.472c4.575 0 7.71-1.83 7.947-5.805.172-2.888-1.32-4.819-6.376-5.812M164.944 18.199a20.1 20.1 0 0 0-3.845.279l.39-7.358h-5.65L154.5 36.49h5.652l.678-12.896a18.879 18.879 0 0 1 2.873-.223c1.948 0 2.492.99 2.418 2.423l-.56 10.696h5.645l.573-10.936c.293-5.566-2.732-7.355-6.836-7.355M178.468 10.604a3.466 3.466 0 0 0-3.43 3.262 3.046 3.046 0 0 0 3.09 3.22 3.477 3.477 0 0 0 3.392-3.22 3.07 3.07 0 0 0-3.052-3.262M174.288 36.49h5.645l.925-17.625h-5.647l-.923 17.625zM93.294 18.406c-2.845 0-4.084.075-7.392.294l-1.267 24.133h5.644l.32-6.068c1.188.044 1.135.044 2.252.044 6.517 0 10.295-3.653 10.625-9.743.284-5.196-4.015-8.66-10.182-8.66M97.92 27.3c-.178 3.416-2.739 4.618-5.222 4.618a31.76 31.76 0 0 1-1.84-.037l.443-8.417c.987-.06 1.371-.069 2.106-.069 2.285 0 4.652 1.257 4.513 3.905M191.51 18.406c-2.846 0-4.084.075-7.39.294l-1.269 24.133h5.643l.32-6.068c1.19.044 1.136.044 2.253.044 6.517 0 10.295-3.653 10.625-9.743.285-5.196-4.014-8.66-10.183-8.66m4.628 8.894c-.179 3.416-2.74 4.618-5.224 4.618-.867 0-1.092-.004-1.839-.037l.443-8.417c.988-.06 1.373-.069 2.107-.069 2.285 0 4.65 1.257 4.513 3.905M114.634 18.2c-5.246 0-9.279 3.214-9.607 9.488-.314 5.928 3.573 9.2 9.618 9.2a12.756 12.756 0 0 0 6.661-1.592l.204-3.92a16.328 16.328 0 0 1-6.403 1.255c-2.539 0-4.583-1.205-4.734-3.056h11.886l.098-1.914c.245-4.655-1.474-9.462-7.723-9.462m2.911 7.61h-7.068a3.925 3.925 0 0 1 4.113-3.227 2.863 2.863 0 0 1 2.955 3.226"/></g><g clip-path="url(#c)"><path transform="rotate(-5.861 35.01 -16.187)" fill="url(#a)" d="M-1.735-1.075h25.446v31.572H-1.735z"/></g><g clip-path="url(#d)"><path transform="rotate(-5.861 45.333 -4.91)" fill="url(#e)" d="M8.734 10.366h25.155v31.243H8.734z"/></g></svg>